<svg xmlns="http://www.w3.org/2000/svg" width="512" height="512" viewBox="0 0 32 32" shape-rendering="crispEdges"><rect x="0" y="0" width="32" height="1" fill="#09e167"/><rect x="0" y="1" width="32" height="1" fill="#09e167"/><rect x="0" y="2" width="32" height="1" fill="#09e167"/><rect x="0" y="3" width="11" height="1" fill="#09e167"/><rect x="11" y="3" width="1" height="1" fill="#000000"/><rect x="12" y="3" width="20" height="1" fill="#09e167"/><rect x="0" y="4" width="1" height="1" fill="#000000"/><rect x="1" y="4" width="12" height="1" fill="#09e167"/><rect x="13" y="4" width="2" height="1" fill="#000000"/><rect x="15" y="4" width="4" height="1" fill="#09e167"/><rect x="19" y="4" width="9" height="1" fill="#000000"/><rect x="28" y="4" width="4" height="1" fill="#09e167"/><rect x="0" y="5" width="2" height="1" fill="#09e167"/><rect x="2" y="5" width="1" height="1" fill="#000000"/><rect x="3" y="5" width="12" height="1" fill="#09e167"/><rect x="15" y="5" width="2" height="1" fill="#000000"/><rect x="17" y="5" width="2" height="1" fill="#09e167"/><rect x="19" y="5" width="2" height="1" fill="#000000"/><rect x="21" y="5" width="9" height="1" fill="#b8a10f"/><rect x="30" y="5" width="2" height="1" fill="#000000"/><rect x="0" y="6" width="1" height="1" fill="#000000"/><rect x="1" y="6" width="2" height="1" fill="#09e167"/><rect x="3" y="6" width="2" height="1" fill="#000000"/><rect x="5" y="6" width="12" height="1" fill="#09e167"/><rect x="17" y="6" width="1" height="1" fill="#000000"/><rect x="18" y="6" width="1" height="1" fill="#b8a10f"/><rect x="19" y="6" width="3" height="1" fill="#000000"/><rect x="22" y="6" width="2" height="1" fill="#b8a10f"/><rect x="24" y="6" width="8" height="1" fill="#e6c700"/><rect x="0" y="7" width="1" height="1" fill="#e6c700"/><rect x="1" y="7" width="1" height="1" fill="#b8a10f"/><rect x="2" y="7" width="5" height="1" fill="#000000"/><rect x="7" y="7" width="12" height="1" fill="#09e167"/><rect x="19" y="7" width="1" height="1" fill="#000000"/><rect x="20" y="7" width="1" height="1" fill="#b8a10f"/><rect x="21" y="7" width="1" height="1" fill="#000000"/><rect x="22" y="7" width="3" height="1" fill="#b8a10f"/><rect x="25" y="7" width="4" height="1" fill="#e6c700"/><rect x="29" y="7" width="3" height="1" fill="#FFD700"/><rect x="0" y="8" width="5" height="1" fill="#FFD700"/><rect x="5" y="8" width="1" height="1" fill="#b8a10f"/><rect x="6" y="8" width="1" height="1" fill="#000000"/><rect x="7" y="8" width="1" height="1" fill="#FFD700"/><rect x="8" y="8" width="1" height="1" fill="#000000"/><rect x="9" y="8" width="12" height="1" fill="#09e167"/><rect x="21" y="8" width="1" height="1" fill="#000000"/><rect x="22" y="8" width="1" height="1" fill="#b8a10f"/><rect x="23" y="8" width="1" height="1" fill="#FFD700"/><rect x="24" y="8" width="1" height="1" fill="#000000"/><rect x="25" y="8" width="1" height="1" fill="#b8a10f"/><rect x="26" y="8" width="3" height="1" fill="#e6c700"/><rect x="29" y="8" width="3" height="1" fill="#FFD700"/><rect x="0" y="9" width="8" height="1" fill="#FFD700"/><rect x="8" y="9" width="1" height="1" fill="#b8a10f"/><rect x="9" y="9" width="2" height="1" fill="#000000"/><rect x="11" y="9" width="11" height="1" fill="#09e167"/><rect x="22" y="9" width="2" height="1" fill="#000000"/><rect x="24" y="9" width="1" height="1" fill="#b8a10f"/><rect x="25" y="9" width="1" height="1" fill="#FFD700"/><rect x="26" y="9" width="1" height="1" fill="#000000"/><rect x="27" y="9" width="3" height="1" fill="#e6c700"/><rect x="30" y="9" width="2" height="1" fill="#FFD700"/><rect x="0" y="10" width="11" height="1" fill="#FFD700"/><rect x="11" y="10" width="1" height="1" fill="#b8a10f"/><rect x="12" y="10" width="1" height="1" fill="#000000"/><rect x="13" y="10" width="10" height="1" fill="#09e167"/><rect x="23" y="10" width="1" height="1" fill="#000000"/><rect x="24" y="10" width="1" height="1" fill="#b8a10f"/><rect x="25" y="10" width="1" height="1" fill="#000000"/><rect x="26" y="10" width="1" height="1" fill="#b8a10f"/><rect x="27" y="10" width="1" height="1" fill="#FFD700"/><rect x="28" y="10" width="2" height="1" fill="#000000"/><rect x="30" y="10" width="1" height="1" fill="#e6c700"/><rect x="31" y="10" width="1" height="1" fill="#FFD700"/><rect x="0" y="11" width="13" height="1" fill="#FFD700"/><rect x="13" y="11" width="1" height="1" fill="#e6c700"/><rect x="14" y="11" width="2" height="1" fill="#000000"/><rect x="16" y="11" width="9" height="1" fill="#09e167"/><rect x="25" y="11" width="1" height="1" fill="#000000"/><rect x="26" y="11" width="2" height="1" fill="#b8a10f"/><rect x="28" y="11" width="1" height="1" fill="#FFA500"/><rect x="29" y="11" width="1" height="1" fill="#000000"/><rect x="30" y="11" width="2" height="1" fill="#e6c700"/><rect x="0" y="12" width="3" height="1" fill="#ffd700"/><rect x="3" y="12" width="1" height="1" fill="#000000"/><rect x="4" y="12" width="4" height="1" fill="#ffd700"/><rect x="8" y="12" width="1" height="1" fill="#000000"/><rect x="9" y="12" width="4" height="1" fill="#ffd700"/><rect x="13" y="12" width="1" height="1" fill="#FFD700"/><rect x="14" y="12" width="1" height="1" fill="#000000"/><rect x="15" y="12" width="1" height="1" fill="#FFD700"/><rect x="16" y="12" width="1" height="1" fill="#b8a10f"/><rect x="17" y="12" width="2" height="1" fill="#000000"/><rect x="19" y="12" width="8" height="1" fill="#09e167"/><rect x="27" y="12" width="1" height="1" fill="#000000"/><rect x="28" y="12" width="2" height="1" fill="#b8a10f"/><rect x="30" y="12" width="2" height="1" fill="#e6c700"/><rect x="0" y="13" width="1" height="1" fill="#e6c700"/><rect x="1" y="13" width="1" height="1" fill="#FFD700"/><rect x="2" y="13" width="1" height="1" fill="#ffd700"/><rect x="3" y="13" width="1" height="1" fill="#e6c700"/><rect x="4" y="13" width="3" height="1" fill="#000000"/><rect x="7" y="13" width="3" height="1" fill="#ffd700"/><rect x="10" y="13" width="1" height="1" fill="#b8a10f"/><rect x="11" y="13" width="1" height="1" fill="#000000"/><rect x="12" y="13" width="3" height="1" fill="#ffd700"/><rect x="15" y="13" width="3" height="1" fill="#000000"/><rect x="18" y="13" width="1" height="1" fill="#ffd700"/><rect x="19" y="13" width="1" height="1" fill="#b8a10f"/><rect x="20" y="13" width="1" height="1" fill="#000000"/><rect x="21" y="13" width="8" height="1" fill="#09e167"/><rect x="29" y="13" width="1" height="1" fill="#000000"/><rect x="30" y="13" width="2" height="1" fill="#b8a10f"/><rect x="0" y="14" width="2" height="1" fill="#e6c700"/><rect x="2" y="14" width="2" height="1" fill="#FFD700"/><rect x="4" y="14" width="1" height="1" fill="#e6c700"/><rect x="5" y="14" width="2" height="1" fill="#ffd700"/><rect x="7" y="14" width="1" height="1" fill="#000000"/><rect x="8" y="14" width="4" height="1" fill="#ffd700"/><rect x="12" y="14" width="2" height="1" fill="#000000"/><rect x="14" y="14" width="4" height="1" fill="#ffd700"/><rect x="18" y="14" width="1" height="1" fill="#000000"/><rect x="19" y="14" width="1" height="1" fill="#ffd700"/><rect x="20" y="14" width="1" height="1" fill="#e6c700"/><rect x="21" y="14" width="1" height="1" fill="#b8a10f"/><rect x="22" y="14" width="1" height="1" fill="#000000"/><rect x="23" y="14" width="8" height="1" fill="#09e167"/><rect x="31" y="14" width="1" height="1" fill="#000000"/><rect x="0" y="15" width="2" height="1" fill="#b8a10f"/><rect x="2" y="15" width="1" height="1" fill="#e6c700"/><rect x="3" y="15" width="3" height="1" fill="#FFD700"/><rect x="6" y="15" width="17" height="1" fill="#ffd700"/><rect x="23" y="15" width="1" height="1" fill="#b8a10f"/><rect x="24" y="15" width="2" height="1" fill="#000000"/><rect x="26" y="15" width="6" height="1" fill="#09e167"/><rect x="0" y="16" width="1" height="1" fill="#09e167"/><rect x="1" y="16" width="1" height="1" fill="#000000"/><rect x="2" y="16" width="2" height="1" fill="#b8a10f"/><rect x="4" y="16" width="1" height="1" fill="#e6c700"/><rect x="5" y="16" width="3" height="1" fill="#FFD700"/><rect x="8" y="16" width="8" height="1" fill="#ffd700"/><rect x="16" y="16" width="1" height="1" fill="#000000"/><rect x="17" y="16" width="8" height="1" fill="#ffd700"/><rect x="25" y="16" width="2" height="1" fill="#b8a10f"/><rect x="27" y="16" width="1" height="1" fill="#000000"/><rect x="28" y="16" width="4" height="1" fill="#09e167"/><rect x="0" y="17" width="3" height="1" fill="#09e167"/><rect x="3" y="17" width="1" height="1" fill="#000000"/><rect x="4" y="17" width="2" height="1" fill="#b8a10f"/><rect x="6" y="17" width="1" height="1" fill="#e6c700"/><rect x="7" y="17" width="1" height="1" fill="#FFD700"/><rect x="8" y="17" width="1" height="1" fill="#e6c700"/><rect x="9" y="17" width="1" height="1" fill="#FFD700"/><rect x="10" y="17" width="2" height="1" fill="#000000"/><rect x="12" y="17" width="13" height="1" fill="#ffd700"/><rect x="25" y="17" width="2" height="1" fill="#000000"/><rect x="27" y="17" width="1" height="1" fill="#ffd700"/><rect x="28" y="17" width="1" height="1" fill="#b8a10f"/><rect x="29" y="17" width="1" height="1" fill="#000000"/><rect x="30" y="17" width="2" height="1" fill="#09e167"/><rect x="0" y="18" width="5" height="1" fill="#09e167"/><rect x="5" y="18" width="1" height="1" fill="#000000"/><rect x="6" y="18" width="2" height="1" fill="#b8a10f"/><rect x="8" y="18" width="1" height="1" fill="#e6c700"/><rect x="9" y="18" width="1" height="1" fill="#FFD700"/><rect x="10" y="18" width="1" height="1" fill="#e6c700"/><rect x="11" y="18" width="1" height="1" fill="#FFD700"/><rect x="12" y="18" width="1" height="1" fill="#e6c700"/><rect x="13" y="18" width="15" height="1" fill="#000000"/><rect x="28" y="18" width="1" height="1" fill="#ffd700"/><rect x="29" y="18" width="1" height="1" fill="#e6c700"/><rect x="30" y="18" width="2" height="1" fill="#000000"/><rect x="0" y="19" width="8" height="1" fill="#09e167"/><rect x="8" y="19" width="1" height="1" fill="#000000"/><rect x="9" y="19" width="2" height="1" fill="#b8a10f"/><rect x="11" y="19" width="1" height="1" fill="#e6c700"/><rect x="12" y="19" width="1" height="1" fill="#FFD700"/><rect x="13" y="19" width="1" height="1" fill="#e6c700"/><rect x="14" y="19" width="1" height="1" fill="#ffd700"/><rect x="15" y="19" width="14" height="1" fill="#e6c700"/><rect x="29" y="19" width="1" height="1" fill="#ffd700"/><rect x="30" y="19" width="1" height="1" fill="#e6c700"/><rect x="31" y="19" width="1" height="1" fill="#b8a10f"/><rect x="0" y="20" width="1" height="1" fill="#000000"/><rect x="1" y="20" width="9" height="1" fill="#09e167"/><rect x="10" y="20" width="2" height="1" fill="#000000"/><rect x="12" y="20" width="2" height="1" fill="#b8a10f"/><rect x="14" y="20" width="1" height="1" fill="#e6c700"/><rect x="15" y="20" width="16" height="1" fill="#ffd700"/><rect x="31" y="20" width="1" height="1" fill="#e6c700"/><rect x="0" y="21" width="1" height="1" fill="#b8a10f"/><rect x="1" y="21" width="2" height="1" fill="#000000"/><rect x="3" y="21" width="10" height="1" fill="#09e167"/><rect x="13" y="21" width="2" height="1" fill="#000000"/><rect x="15" y="21" width="2" height="1" fill="#b8a10f"/><rect x="17" y="21" width="1" height="1" fill="#e6c700"/><rect x="18" y="21" width="2" height="1" fill="#ffd700"/><rect x="20" y="21" width="2" height="1" fill="#5f540c"/><rect x="22" y="21" width="9" height="1" fill="#ffd700"/><rect x="31" y="21" width="1" height="1" fill="#5f540c"/><rect x="0" y="22" width="1" height="1" fill="#5f540c"/><rect x="1" y="22" width="1" height="1" fill="#e6c700"/><rect x="2" y="22" width="1" height="1" fill="#b8a10f"/><rect x="3" y="22" width="1" height="1" fill="#000000"/><rect x="4" y="22" width="12" height="1" fill="#09e167"/><rect x="16" y="22" width="2" height="1" fill="#000000"/><rect x="18" y="22" width="2" height="1" fill="#b8a10f"/><rect x="20" y="22" width="2" height="1" fill="#e6c700"/><rect x="22" y="22" width="1" height="1" fill="#ffd700"/><rect x="23" y="22" width="1" height="1" fill="#e6c700"/><rect x="24" y="22" width="8" height="1" fill="#5f540c"/><rect x="0" y="23" width="1" height="1" fill="#5f540c"/><rect x="1" y="23" width="1" height="1" fill="#ffd700"/><rect x="2" y="23" width="1" height="1" fill="#e6c700"/><rect x="3" y="23" width="1" height="1" fill="#b8a10f"/><rect x="4" y="23" width="1" height="1" fill="#000000"/><rect x="5" y="23" width="13" height="1" fill="#09e167"/><rect x="18" y="23" width="1" height="1" fill="#000000"/><rect x="19" y="23" width="2" height="1" fill="#b8a10f"/><rect x="21" y="23" width="2" height="1" fill="#e6c700"/><rect x="23" y="23" width="1" height="1" fill="#b8a10f"/><rect x="24" y="23" width="2" height="1" fill="#ffd700"/><rect x="26" y="23" width="6" height="1" fill="#e6c700"/><rect x="0" y="24" width="2" height="1" fill="#e6c700"/><rect x="2" y="24" width="1" height="1" fill="#ffd700"/><rect x="3" y="24" width="2" height="1" fill="#e6c700"/><rect x="5" y="24" width="1" height="1" fill="#b8a10f"/><rect x="6" y="24" width="2" height="1" fill="#000000"/><rect x="8" y="24" width="11" height="1" fill="#09e167"/><rect x="19" y="24" width="2" height="1" fill="#000000"/><rect x="21" y="24" width="1" height="1" fill="#b8a10f"/><rect x="22" y="24" width="1" height="1" fill="#e6c700"/><rect x="23" y="24" width="2" height="1" fill="#FFD700"/><rect x="25" y="24" width="1" height="1" fill="#e6c700"/><rect x="26" y="24" width="3" height="1" fill="#ffd700"/><rect x="29" y="24" width="3" height="1" fill="#b8a10f"/><rect x="0" y="25" width="4" height="1" fill="#b8a10f"/><rect x="4" y="25" width="2" height="1" fill="#ffd700"/><rect x="6" y="25" width="2" height="1" fill="#e6c700"/><rect x="8" y="25" width="1" height="1" fill="#b8a10f"/><rect x="9" y="25" width="1" height="1" fill="#000000"/><rect x="10" y="25" width="10" height="1" fill="#09e167"/><rect x="20" y="25" width="2" height="1" fill="#000000"/><rect x="22" y="25" width="1" height="1" fill="#b8a10f"/><rect x="23" y="25" width="1" height="1" fill="#e6c700"/><rect x="24" y="25" width="1" height="1" fill="#FFD700"/><rect x="25" y="25" width="1" height="1" fill="#e6c700"/><rect x="26" y="25" width="1" height="1" fill="#000000"/><rect x="27" y="25" width="1" height="1" fill="#b8a10f"/><rect x="28" y="25" width="2" height="1" fill="#ffd700"/><rect x="30" y="25" width="1" height="1" fill="#b8a10f"/><rect x="31" y="25" width="1" height="1" fill="#ecec74"/><rect x="0" y="26" width="6" height="1" fill="#ecec74"/><rect x="6" y="26" width="1" height="1" fill="#b8a10f"/><rect x="7" y="26" width="1" height="1" fill="#ffd700"/><rect x="8" y="26" width="1" height="1" fill="#000000"/><rect x="9" y="26" width="1" height="1" fill="#ffd700"/><rect x="10" y="26" width="1" height="1" fill="#e6c700"/><rect x="11" y="26" width="1" height="1" fill="#000000"/><rect x="12" y="26" width="10" height="1" fill="#09e167"/><rect x="22" y="26" width="1" height="1" fill="#000000"/><rect x="23" y="26" width="2" height="1" fill="#b8a10f"/><rect x="25" y="26" width="1" height="1" fill="#e6c700"/><rect x="26" y="26" width="1" height="1" fill="#FFD700"/><rect x="27" y="26" width="2" height="1" fill="#e6c700"/><rect x="29" y="26" width="1" height="1" fill="#000000"/><rect x="30" y="26" width="2" height="1" fill="#b8a10f"/><rect x="0" y="27" width="2" height="1" fill="#ecec74"/><rect x="2" y="27" width="7" height="1" fill="#f0f0b7"/><rect x="9" y="27" width="1" height="1" fill="#b8a10f"/><rect x="10" y="27" width="1" height="1" fill="#ffd700"/><rect x="11" y="27" width="1" height="1" fill="#000000"/><rect x="12" y="27" width="1" height="1" fill="#ffd700"/><rect x="13" y="27" width="1" height="1" fill="#b8a10f"/><rect x="14" y="27" width="1" height="1" fill="#000000"/><rect x="15" y="27" width="9" height="1" fill="#09e167"/><rect x="24" y="27" width="1" height="1" fill="#000000"/><rect x="25" y="27" width="1" height="1" fill="#b8a10f"/><rect x="26" y="27" width="2" height="1" fill="#e6c700"/><rect x="28" y="27" width="2" height="1" fill="#FFD700"/><rect x="30" y="27" width="1" height="1" fill="#e6c700"/><rect x="31" y="27" width="1" height="1" fill="#000000"/><rect x="0" y="28" width="1" height="1" fill="#b8a10f"/><rect x="1" y="28" width="2" height="1" fill="#ecec74"/><rect x="3" y="28" width="9" height="1" fill="#f0f0b7"/><rect x="12" y="28" width="1" height="1" fill="#b8a10f"/><rect x="13" y="28" width="1" height="1" fill="#ffd700"/><rect x="14" y="28" width="1" height="1" fill="#000000"/><rect x="15" y="28" width="1" height="1" fill="#e6c700"/><rect x="16" y="28" width="1" height="1" fill="#000000"/><rect x="17" y="28" width="8" height="1" fill="#09e167"/><rect x="25" y="28" width="2" height="1" fill="#000000"/><rect x="27" y="28" width="1" height="1" fill="#b8a10f"/><rect x="28" y="28" width="2" height="1" fill="#e6c700"/><rect x="30" y="28" width="2" height="1" fill="#FFD700"/><rect x="0" y="29" width="1" height="1" fill="#e6c700"/><rect x="1" y="29" width="1" height="1" fill="#000000"/><rect x="2" y="29" width="1" height="1" fill="#b8a10f"/><rect x="3" y="29" width="1" height="1" fill="#ecec74"/><rect x="4" y="29" width="10" height="1" fill="#f0f0b7"/><rect x="14" y="29" width="1" height="1" fill="#b8a10f"/><rect x="15" y="29" width="1" height="1" fill="#ffd700"/><rect x="16" y="29" width="1" height="1" fill="#000000"/><rect x="17" y="29" width="1" height="1" fill="#e6c700"/><rect x="18" y="29" width="1" height="1" fill="#000000"/><rect x="19" y="29" width="8" height="1" fill="#09e167"/><rect x="27" y="29" width="1" height="1" fill="#000000"/><rect x="28" y="29" width="2" height="1" fill="#b8a10f"/><rect x="30" y="29" width="2" height="1" fill="#e6c700"/><rect x="0" y="30" width="2" height="1" fill="#FFD700"/><rect x="2" y="30" width="1" height="1" fill="#e6c700"/><rect x="3" y="30" width="1" height="1" fill="#000000"/><rect x="4" y="30" width="1" height="1" fill="#b8a10f"/><rect x="5" y="30" width="1" height="1" fill="#ecec74"/><rect x="6" y="30" width="10" height="1" fill="#f0f0b7"/><rect x="16" y="30" width="1" height="1" fill="#b8a10f"/><rect x="17" y="30" width="1" height="1" fill="#ffd700"/><rect x="18" y="30" width="1" height="1" fill="#000000"/><rect x="19" y="30" width="1" height="1" fill="#e6c700"/><rect x="20" y="30" width="1" height="1" fill="#000000"/><rect x="21" y="30" width="8" height="1" fill="#09e167"/><rect x="29" y="30" width="1" height="1" fill="#000000"/><rect x="30" y="30" width="2" height="1" fill="#b8a10f"/><rect x="0" y="31" width="2" height="1" fill="#e6c700"/><rect x="2" y="31" width="2" height="1" fill="#FFD700"/><rect x="4" y="31" width="1" height="1" fill="#e6c700"/><rect x="5" y="31" width="1" height="1" fill="#000000"/><rect x="6" y="31" width="1" height="1" fill="#b8a10f"/><rect x="7" y="31" width="1" height="1" fill="#ecec74"/><rect x="8" y="31" width="10" height="1" fill="#f0f0b7"/><rect x="18" y="31" width="1" height="1" fill="#b8a10f"/><rect x="19" y="31" width="1" height="1" fill="#ffd700"/><rect x="20" y="31" width="1" height="1" fill="#000000"/><rect x="21" y="31" width="1" height="1" fill="#e6c700"/><rect x="22" y="31" width="1" height="1" fill="#000000"/><rect x="23" y="31" width="8" height="1" fill="#09e167"/><rect x="31" y="31" width="1" height="1" fill="#000000"/><rect x="0" y="32" width="2" height="1" fill="#b8a10f"/><rect x="2" y="32" width="2" height="1" fill="#e6c700"/><rect x="4" y="32" width="2" height="1" fill="#FFD700"/><rect x="6" y="32" width="1" height="1" fill="#e6c700"/><rect x="7" y="32" width="1" height="1" fill="#000000"/><rect x="8" y="32" width="1" height="1" fill="#b8a10f"/><rect x="9" y="32" width="1" height="1" fill="#ecec74"/><rect x="10" y="32" width="10" height="1" fill="#f0f0b7"/><rect x="20" y="32" width="1" height="1" fill="#b8a10f"/><rect x="21" y="32" width="1" height="1" fill="#ffd700"/><rect x="22" y="32" width="1" height="1" fill="#000000"/><rect x="23" y="32" width="1" height="1" fill="#e6c700"/><rect x="24" y="32" width="1" height="1" fill="#b8a10f"/><rect x="25" y="32" width="1" height="1" fill="#000000"/><rect x="26" y="32" width="6" height="1" fill="#09e167"/><rect x="0" y="33" width="1" height="1" fill="#09e167"/><rect x="1" y="33" width="1" height="1" fill="#000000"/><rect x="2" y="33" width="2" height="1" fill="#b8a10f"/><rect x="4" y="33" width="2" height="1" fill="#e6c700"/><rect x="6" y="33" width="2" height="1" fill="#FFD700"/><rect x="8" y="33" width="2" height="1" fill="#000000"/><rect x="10" y="33" width="1" height="1" fill="#b8a10f"/><rect x="11" y="33" width="1" height="1" fill="#ecec74"/><rect x="12" y="33" width="10" height="1" fill="#f0f0b7"/><rect x="22" y="33" width="1" height="1" fill="#b8a10f"/><rect x="23" y="33" width="1" height="1" fill="#ffd700"/><rect x="24" y="33" width="1" height="1" fill="#000000"/><rect x="25" y="33" width="1" height="1" fill="#e6c700"/><rect x="26" y="33" width="1" height="1" fill="#b8a10f"/><rect x="27" y="33" width="1" height="1" fill="#000000"/><rect x="28" y="33" width="4" height="1" fill="#09e167"/><rect x="0" y="34" width="3" height="1" fill="#09e167"/><rect x="3" y="34" width="1" height="1" fill="#000000"/><rect x="4" y="34" width="2" height="1" fill="#b8a10f"/><rect x="6" y="34" width="2" height="1" fill="#e6c700"/><rect x="8" y="34" width="2" height="1" fill="#FFD700"/><rect x="10" y="34" width="1" height="1" fill="#000000"/><rect x="11" y="34" width="1" height="1" fill="#a08c0e"/><rect x="12" y="34" width="1" height="1" fill="#b8a10f"/><rect x="13" y="34" width="1" height="1" fill="#ecec74"/><rect x="14" y="34" width="10" height="1" fill="#f0f0b7"/><rect x="24" y="34" width="1" height="1" fill="#b8a10f"/><rect x="25" y="34" width="1" height="1" fill="#ffd700"/><rect x="26" y="34" width="1" height="1" fill="#000000"/><rect x="27" y="34" width="1" height="1" fill="#e6c700"/><rect x="28" y="34" width="1" height="1" fill="#b8a10f"/><rect x="29" y="34" width="1" height="1" fill="#000000"/><rect x="30" y="34" width="2" height="1" fill="#09e167"/><rect x="0" y="35" width="5" height="1" fill="#09e167"/><rect x="5" y="35" width="1" height="1" fill="#000000"/><rect x="6" y="35" width="2" height="1" fill="#b8a10f"/><rect x="8" y="35" width="2" height="1" fill="#e6c700"/><rect x="10" y="35" width="1" height="1" fill="#FFD700"/><rect x="11" y="35" width="1" height="1" fill="#e6c700"/><rect x="12" y="35" width="1" height="1" fill="#000000"/><rect x="13" y="35" width="1" height="1" fill="#a08c0e"/><rect x="14" y="35" width="1" height="1" fill="#b8a10f"/><rect x="15" y="35" width="1" height="1" fill="#ecec74"/><rect x="16" y="35" width="10" height="1" fill="#f0f0b7"/><rect x="26" y="35" width="1" height="1" fill="#b8a10f"/><rect x="27" y="35" width="1" height="1" fill="#e6c700"/><rect x="28" y="35" width="2" height="1" fill="#000000"/><rect x="30" y="35" width="1" height="1" fill="#b8a10f"/><rect x="31" y="35" width="1" height="1" fill="#000000"/><rect x="0" y="36" width="4" height="1" fill="#09e167"/></svg>